<?xml version="1.0" encoding="UTF-8"?>
<svg id="Capa_1" xmlns="http://www.w3.org/2000/svg" viewBox="0 0 717.33 466.01">
  <defs>
    <style>
      .cls-1 {
        fill: #8ec0fa;
      }

      .cls-2 {
        fill: #15578d;
      }

      .cls-3 {
        fill: #e6212d;
      }
    </style>
  </defs>
  <path class="cls-3" d="M713.94.03c-53.28,0-106.55,0-159.83,0-.85,0-1.7.08-2.55.12-12.02,25.13-24.03,50.26-36.08,75.38-62.15,129.51-124.31,259.01-186.46,388.51-.27.57-.48,1.18-.72,1.76,10.86.04,21.73.12,32.59.13,44.96.01,89.93-.02,134.89.08,2.66,0,3.83-.88,4.9-3.2,7.72-16.8,15.58-33.54,23.43-50.29,26.58-56.74,53.16-113.48,79.75-170.22,35.29-75.3,70.59-150.59,105.87-225.89,2.49-5.32,4.94-10.67,7.58-16.38h-3.39Z"/>
  <path class="cls-2" d="M515.49,75.53c12.05-25.11,24.05-50.25,36.08-75.38-.1-.02-.21-.05-.31-.05C497.23.07,443.2.06,389.17,0c-.2,0-.39.01-.56.03h.4c-2.64,5.71-5.08,11.06-7.58,16.38-35.29,75.3-70.58,150.59-105.87,225.89-26.59,56.74-53.17,113.48-79.75,170.22-7.84,16.75-15.7,33.48-23.43,50.29-.9,1.97-1.89,2.89-3.78,3.13,52.18,0,104.35,0,156.53,0,1.06,0,2.13-.08,3.19-.13.24-.59.44-1.19.72-1.76,62.15-129.51,124.31-259.01,186.46-388.51Z"/>
  <path class="cls-1" d="M388.61.03h-2.99c-53.28,0-106.55,0-159.83,0-.85,0-1.7.08-2.55.12-12.02,25.13-24.03,50.26-36.08,75.38C125.03,205.03,62.87,334.53.72,464.04c-.27.57-.48,1.18-.72,1.76,10.86.04,21.73.12,32.59.13,44.96.01,89.93-.02,134.89.08.41,0,.77-.03,1.12-.07,1.89-.24,2.88-1.17,3.78-3.13,7.72-16.8,15.58-33.54,23.43-50.29,26.58-56.74,53.16-113.48,79.75-170.22,35.29-75.3,70.59-150.59,105.87-225.89,2.49-5.32,4.94-10.67,7.58-16.38h-.4Z"/>
</svg>